<svg width="689" height="140" viewBox="0 0 689 140" fill="none" xmlns="http://www.w3.org/2000/svg">
<rect width="150.016" height="140" rx="45" fill="#A53CF0"/>
<path d="M57.1371 98.544C57.1371 100.016 56.8171 101.392 56.1771 102.672C50.7371 102.224 46.8331 102 44.4651 102L35.3451 102.672C35.3451 101.2 35.6651 99.824 36.3051 98.544C38.8651 97.84 41.0411 96.688 42.8331 95.088C45.7131 75.056 47.8251 57.36 49.1691 42L41.2011 40.176C41.2011 38.704 41.5211 37.328 42.1611 36.048C46.0651 36.496 49.2651 36.72 51.7611 36.72H60.0171C65.5851 58.864 70.5451 76.176 74.8971 88.656C80.0811 77.584 87.3131 60.272 96.5931 36.72H105.329L115.409 36.048C115.409 37.52 115.089 38.896 114.449 40.176C111.569 40.688 109.201 41.648 107.345 43.056C105.681 60.656 104.689 78.64 104.369 97.008L112.529 98.544C112.529 100.016 112.209 101.392 111.569 102.672C106.257 102.224 102.449 102 100.145 102C96.6251 102 93.3291 102.192 90.2571 102.576L89.0091 102.672C89.0091 101.2 89.3291 99.824 89.9691 98.544C92.3371 97.84 94.4171 96.752 96.2091 95.28C97.4891 83.184 98.5131 66.928 99.2811 46.512C90.1931 66.288 82.4811 84.784 76.1451 102L74.8011 102.96L69.1371 102C64.2091 81.84 59.3451 63.824 54.5451 47.952C52.0491 65.488 50.2571 81.744 49.1691 96.72L57.1371 98.544Z" fill="white"/>
<g filter="url(#filter0_d_1_6)">
<path d="M193.807 96.048L194.575 96.24H203.791C206.479 95.216 208.847 92.752 210.895 88.848C212.943 84.944 213.967 80.944 213.967 76.848C213.967 71.792 213.071 68.208 211.279 66.096C209.679 64.24 208.271 63.152 207.055 62.832L206.287 62.64H197.071C194.383 63.664 192.015 66.128 189.967 70.032C187.919 73.936 186.895 78.192 186.895 82.8C186.895 87.344 187.727 90.608 189.391 92.592C191.119 94.576 192.591 95.728 193.807 96.048ZM218.383 87.024C216.591 91.376 213.743 95.12 209.839 98.256C205.999 101.392 201.423 102.96 196.111 102.96C185.167 102.96 179.695 97.008 179.695 85.104C179.695 80.624 180.591 76.208 182.383 71.856C184.239 67.504 187.087 63.76 190.927 60.624C194.831 57.488 199.439 55.92 204.751 55.92C215.695 55.92 221.167 61.872 221.167 73.776C221.167 78.256 220.239 82.672 218.383 87.024ZM229.061 62.64C229.061 61.168 229.381 59.792 230.021 58.512C233.669 58 237.221 56.976 240.677 55.44C241.573 55.44 242.373 55.856 243.077 56.688C243.781 57.456 244.133 58.48 244.133 59.76L242.309 73.488L243.269 74.064C245.253 69.52 248.197 65.36 252.101 61.584C256.005 57.808 260.421 55.92 265.349 55.92C267.717 55.92 269.605 56.24 271.013 56.88C272.421 57.52 273.253 58.16 273.509 58.8L273.797 59.76C272.325 72.112 271.333 84.272 270.821 96.24H278.501C278.501 97.712 278.181 99.088 277.541 100.368C273.253 100.88 269.381 101.904 265.925 103.44C264.965 103.44 264.133 103.088 263.429 102.384C262.789 101.68 262.469 100.592 262.469 99.12C263.877 90.16 265.093 78 266.117 62.64H260.261C257.701 62.64 254.661 64.656 251.141 68.688C247.621 72.656 244.773 77.04 242.597 81.84C241.957 89.776 241.221 96.496 240.389 102C237.253 102.96 234.245 103.44 231.365 103.44C232.389 99.152 233.285 94.128 234.053 88.368C234.821 82.608 235.493 74.032 236.069 62.64H229.061ZM319.326 96.24C319.326 97.712 319.006 99.088 318.366 100.368C311.582 102.096 306.718 102.96 303.774 102.96C292.766 102.96 287.262 96.976 287.262 85.008C287.262 80.592 288.222 76.208 290.142 71.856C292.062 67.44 294.974 63.696 298.878 60.624C302.846 57.488 307.326 55.92 312.318 55.92C315.454 55.92 317.758 56.72 319.23 58.32C320.702 59.92 321.438 61.872 321.438 64.176C321.438 75.696 312.414 81.648 294.366 82.032C294.366 90.8 296.99 95.536 302.238 96.24H319.326ZM314.718 66.576C314.718 64.464 313.822 63.152 312.03 62.64H303.198C301.086 63.472 299.262 65.328 297.726 68.208C296.19 71.024 295.166 74.224 294.654 77.808C302.014 77.552 307.198 76.496 310.206 74.64C313.214 72.72 314.718 70.032 314.718 66.576ZM326.938 122.832C326.938 121.296 327.226 119.952 327.802 118.8H349.69C352.57 117.392 355.098 112.88 357.274 105.264C358.682 100.464 359.706 93.84 360.346 85.392L359.482 84.912C357.114 90.672 354.714 95.12 352.282 98.256C349.85 101.392 346.65 102.96 342.682 102.96C338.714 102.96 335.386 101.52 332.698 98.64C330.01 95.696 328.666 91.728 328.666 86.736C328.666 78.48 331.13 71.28 336.058 65.136C340.986 58.992 347.098 55.92 354.394 55.92C356.826 55.92 359.482 56.816 362.362 58.608L362.746 55.92C365.946 54.96 368.986 54.48 371.866 54.48C370.65 59.408 369.85 63.248 369.466 66C369.082 68.688 368.634 72.368 368.122 77.04C367.674 81.712 367.29 85.584 366.97 88.656C366.65 91.664 366.202 95.056 365.626 98.832C365.05 102.544 364.41 105.552 363.706 107.856C363.002 110.224 362.01 112.624 360.73 115.056C359.45 117.552 357.978 119.472 356.314 120.816C352.474 123.952 347.45 125.52 341.242 125.52C338.618 125.52 334.714 124.848 329.53 123.504L326.938 122.832ZM335.962 84.048C335.962 86.864 336.602 89.424 337.882 91.728C339.162 93.968 340.602 95.472 342.202 96.24H346.81C350.586 95.536 355.066 88.912 360.25 76.368C360.506 73.36 361.018 68.784 361.786 62.64H346.522C344.026 63.088 341.626 65.584 339.322 70.128C337.082 74.608 335.962 79.248 335.962 84.048ZM379.583 62.64C379.583 61.168 379.903 59.792 380.543 58.512C384.191 58 387.743 56.976 391.199 55.44C392.095 55.44 392.895 55.856 393.599 56.688C394.303 57.456 394.655 58.48 394.655 59.76L393.023 71.28L393.983 71.856C395.583 68.208 398.047 64.656 401.375 61.2C404.767 57.68 408.031 55.92 411.167 55.92C412.383 55.92 413.471 56.176 414.431 56.688C415.455 57.2 416.159 57.712 416.543 58.224L417.119 58.992C415.519 61.808 414.303 64.944 413.471 68.4L412.991 70.032C411.711 70.608 410.143 70.896 408.287 70.896C408.863 68.272 409.151 66.608 409.151 65.904C409.151 64.112 408.543 63.024 407.327 62.64C405.919 62.64 403.711 64.464 400.703 68.112C397.695 71.696 395.231 75.568 393.311 79.728C392.479 89.328 391.679 96.752 390.911 102C387.775 102.96 384.767 103.44 381.887 103.44C382.911 99.152 383.807 94.128 384.575 88.368C385.343 82.608 386.015 74.032 386.591 62.64H379.583ZM465.208 96.24C465.208 97.712 464.888 99.088 464.248 100.368C459.96 100.88 456.088 101.904 452.632 103.44C451.672 103.44 450.84 103.088 450.136 102.384C449.496 101.68 449.176 100.592 449.176 99.12L451 85.392L450.04 84.816C447.672 90.576 445.272 95.056 442.84 98.256C440.408 101.392 437.208 102.96 433.24 102.96C429.272 102.96 425.944 101.52 423.256 98.64C420.568 95.696 419.224 91.728 419.224 86.736C419.224 78.48 421.688 71.28 426.616 65.136C431.544 58.992 437.656 55.92 444.952 55.92C447.32 55.92 450.008 56.848 453.016 58.704C453.144 57.552 453.272 56.624 453.4 55.92C456.6 54.96 459.64 54.48 462.52 54.48C461.304 59.408 460.28 64.72 459.448 70.416C458.68 76.112 457.912 84.72 457.144 96.24H465.208ZM426.52 84.048C426.52 86.864 427.16 89.424 428.44 91.728C429.72 93.968 431.16 95.472 432.76 96.24H437.368C441.08 95.536 445.592 88.816 450.904 76.08C451.16 73.392 451.672 68.912 452.44 62.64H437.08C434.584 63.088 432.184 65.584 429.88 70.128C427.64 74.608 426.52 79.248 426.52 84.048ZM536.718 55.92C539.086 55.92 540.974 56.24 542.382 56.88C543.79 57.52 544.59 58.16 544.782 58.8L545.166 59.76C543.694 72.112 542.702 84.272 542.19 96.24H549.87C549.87 97.712 549.55 99.088 548.91 100.368C544.622 100.88 540.75 101.904 537.294 103.44C536.334 103.44 535.502 103.088 534.798 102.384C534.158 101.68 533.838 100.592 533.838 99.12C535.246 90.16 536.462 78 537.486 62.64H531.63C529.39 62.64 526.606 64.88 523.278 69.36C519.95 73.84 517.07 78.672 514.638 83.856C513.934 93.264 513.39 99.312 513.006 102C509.87 102.96 506.862 103.44 503.982 103.44C505.006 99.152 505.646 96.016 505.902 94.032C507.054 88.464 508.142 78 509.166 62.64H503.31C500.814 62.64 498.094 64.592 495.15 68.496C492.27 72.336 489.742 76.784 487.566 81.84C486.926 89.776 486.19 96.496 485.358 102C482.222 102.96 479.214 103.44 476.334 103.44C477.358 99.152 478.254 94.128 479.022 88.368C479.79 82.608 480.462 74.032 481.038 62.64H474.03C474.03 61.168 474.35 59.792 474.99 58.512C478.638 58 482.19 56.976 485.646 55.44C486.542 55.44 487.342 55.856 488.046 56.688C488.75 57.456 489.102 58.48 489.102 59.76L487.278 73.488L488.238 74.064C493.55 61.968 500.27 55.92 508.398 55.92C510.766 55.92 512.654 56.24 514.062 56.88C515.47 57.52 516.302 58.16 516.558 58.8L516.846 59.76C516.782 61.488 516.366 66.064 515.598 73.488L516.558 74.064C521.87 61.968 528.59 55.92 536.718 55.92Z" fill="#A53CF0"/>
</g>
<defs>
<filter id="filter0_d_1_6" x="175.695" y="54.48" width="378.175" height="79.04" filterUnits="userSpaceOnUse" color-interpolation-filters="sRGB">
<feFlood flood-opacity="0" result="BackgroundImageFix"/>
<feColorMatrix in="SourceAlpha" type="matrix" values="0 0 0 0 0 0 0 0 0 0 0 0 0 0 0 0 0 0 127 0" result="hardAlpha"/>
<feOffset dy="4"/>
<feGaussianBlur stdDeviation="2"/>
<feComposite in2="hardAlpha" operator="out"/>
<feColorMatrix type="matrix" values="0 0 0 0 0 0 0 0 0 0 0 0 0 0 0 0 0 0 0.25 0"/>
<feBlend mode="normal" in2="BackgroundImageFix" result="effect1_dropShadow_1_6"/>
<feBlend mode="normal" in="SourceGraphic" in2="effect1_dropShadow_1_6" result="shape"/>
</filter>
</defs>
</svg>
