<svg width="643" height="140" viewBox="0 0 643 140" fill="none" xmlns="http://www.w3.org/2000/svg">
<rect width="140" height="140" rx="45" fill="#A53CF0"/>
<path d="M52.0935 98.544C52.0935 100.016 51.7735 101.392 51.1335 102.672C45.6935 102.224 41.7895 102 39.4215 102L30.3015 102.672C30.3015 101.2 30.6215 99.824 31.2615 98.544C33.8215 97.84 35.9975 96.688 37.7895 95.088C40.6695 75.056 42.7815 57.36 44.1255 42L36.1575 40.176C36.1575 38.704 36.4775 37.328 37.1175 36.048C41.0215 36.496 44.2215 36.72 46.7175 36.72H54.9735C60.5415 58.864 65.5015 76.176 69.8535 88.656C75.0375 77.584 82.2695 60.272 91.5495 36.72H100.286L110.366 36.048C110.366 37.52 110.046 38.896 109.406 40.176C106.526 40.688 104.158 41.648 102.302 43.056C100.638 60.656 99.6455 78.64 99.3255 97.008L107.486 98.544C107.486 100.016 107.166 101.392 106.526 102.672C101.214 102.224 97.4055 102 95.1015 102C91.5815 102 88.2855 102.192 85.2135 102.576L83.9655 102.672C83.9655 101.2 84.2855 99.824 84.9255 98.544C87.2935 97.84 89.3735 96.752 91.1655 95.28C92.4455 83.184 93.4695 66.928 94.2375 46.512C85.1495 66.288 77.4375 84.784 71.1015 102L69.7575 102.96L64.0935 102C59.1655 81.84 54.3015 63.824 49.5015 47.952C47.0055 65.488 45.2135 81.744 44.1255 96.72L52.0935 98.544Z" fill="white"/>
<path d="M174.807 96.048L175.575 96.24H184.791C187.479 95.216 189.847 92.752 191.895 88.848C193.943 84.944 194.967 80.944 194.967 76.848C194.967 71.792 194.071 68.208 192.279 66.096C190.679 64.24 189.271 63.152 188.055 62.832L187.287 62.64H178.071C175.383 63.664 173.015 66.128 170.967 70.032C168.919 73.936 167.895 78.192 167.895 82.8C167.895 87.344 168.727 90.608 170.391 92.592C172.119 94.576 173.591 95.728 174.807 96.048ZM199.383 87.024C197.591 91.376 194.743 95.12 190.839 98.256C186.999 101.392 182.423 102.96 177.111 102.96C166.167 102.96 160.695 97.008 160.695 85.104C160.695 80.624 161.591 76.208 163.383 71.856C165.239 67.504 168.087 63.76 171.927 60.624C175.831 57.488 180.439 55.92 185.751 55.92C196.695 55.92 202.167 61.872 202.167 73.776C202.167 78.256 201.239 82.672 199.383 87.024ZM210.061 62.64C210.061 61.168 210.381 59.792 211.021 58.512C214.669 58 218.221 56.976 221.677 55.44C222.573 55.44 223.373 55.856 224.077 56.688C224.781 57.456 225.133 58.48 225.133 59.76L223.309 73.488L224.269 74.064C226.253 69.52 229.197 65.36 233.101 61.584C237.005 57.808 241.421 55.92 246.349 55.92C248.717 55.92 250.605 56.24 252.013 56.88C253.421 57.52 254.253 58.16 254.509 58.8L254.797 59.76C253.325 72.112 252.333 84.272 251.821 96.24H259.501C259.501 97.712 259.181 99.088 258.541 100.368C254.253 100.88 250.381 101.904 246.925 103.44C245.965 103.44 245.133 103.088 244.429 102.384C243.789 101.68 243.469 100.592 243.469 99.12C244.877 90.16 246.093 78 247.117 62.64H241.261C238.701 62.64 235.661 64.656 232.141 68.688C228.621 72.656 225.773 77.04 223.597 81.84C222.957 89.776 222.221 96.496 221.389 102C218.253 102.96 215.245 103.44 212.365 103.44C213.389 99.152 214.285 94.128 215.053 88.368C215.821 82.608 216.493 74.032 217.069 62.64H210.061ZM300.326 96.24C300.326 97.712 300.006 99.088 299.366 100.368C292.582 102.096 287.718 102.96 284.774 102.96C273.766 102.96 268.262 96.976 268.262 85.008C268.262 80.592 269.222 76.208 271.142 71.856C273.062 67.44 275.974 63.696 279.878 60.624C283.846 57.488 288.326 55.92 293.318 55.92C296.454 55.92 298.758 56.72 300.23 58.32C301.702 59.92 302.438 61.872 302.438 64.176C302.438 75.696 293.414 81.648 275.366 82.032C275.366 90.8 277.99 95.536 283.238 96.24H300.326ZM295.718 66.576C295.718 64.464 294.822 63.152 293.03 62.64H284.198C282.086 63.472 280.262 65.328 278.726 68.208C277.19 71.024 276.166 74.224 275.654 77.808C283.014 77.552 288.198 76.496 291.206 74.64C294.214 72.72 295.718 70.032 295.718 66.576ZM307.938 122.832C307.938 121.296 308.226 119.952 308.802 118.8H330.69C333.57 117.392 336.098 112.88 338.274 105.264C339.682 100.464 340.706 93.84 341.346 85.392L340.482 84.912C338.114 90.672 335.714 95.12 333.282 98.256C330.85 101.392 327.65 102.96 323.682 102.96C319.714 102.96 316.386 101.52 313.698 98.64C311.01 95.696 309.666 91.728 309.666 86.736C309.666 78.48 312.13 71.28 317.058 65.136C321.986 58.992 328.098 55.92 335.394 55.92C337.826 55.92 340.482 56.816 343.362 58.608L343.746 55.92C346.946 54.96 349.986 54.48 352.866 54.48C351.65 59.408 350.85 63.248 350.466 66C350.082 68.688 349.634 72.368 349.122 77.04C348.674 81.712 348.29 85.584 347.97 88.656C347.65 91.664 347.202 95.056 346.626 98.832C346.05 102.544 345.41 105.552 344.706 107.856C344.002 110.224 343.01 112.624 341.73 115.056C340.45 117.552 338.978 119.472 337.314 120.816C333.474 123.952 328.45 125.52 322.242 125.52C319.618 125.52 315.714 124.848 310.53 123.504L307.938 122.832ZM316.962 84.048C316.962 86.864 317.602 89.424 318.882 91.728C320.162 93.968 321.602 95.472 323.202 96.24H327.81C331.586 95.536 336.066 88.912 341.25 76.368C341.506 73.36 342.018 68.784 342.786 62.64H327.522C325.026 63.088 322.626 65.584 320.322 70.128C318.082 74.608 316.962 79.248 316.962 84.048ZM360.583 62.64C360.583 61.168 360.903 59.792 361.543 58.512C365.191 58 368.743 56.976 372.199 55.44C373.095 55.44 373.895 55.856 374.599 56.688C375.303 57.456 375.655 58.48 375.655 59.76L374.023 71.28L374.983 71.856C376.583 68.208 379.047 64.656 382.375 61.2C385.767 57.68 389.031 55.92 392.167 55.92C393.383 55.92 394.471 56.176 395.431 56.688C396.455 57.2 397.159 57.712 397.543 58.224L398.119 58.992C396.519 61.808 395.303 64.944 394.471 68.4L393.991 70.032C392.711 70.608 391.143 70.896 389.287 70.896C389.863 68.272 390.151 66.608 390.151 65.904C390.151 64.112 389.543 63.024 388.327 62.64C386.919 62.64 384.711 64.464 381.703 68.112C378.695 71.696 376.231 75.568 374.311 79.728C373.479 89.328 372.679 96.752 371.911 102C368.775 102.96 365.767 103.44 362.887 103.44C363.911 99.152 364.807 94.128 365.575 88.368C366.343 82.608 367.015 74.032 367.591 62.64H360.583ZM446.208 96.24C446.208 97.712 445.888 99.088 445.248 100.368C440.96 100.88 437.088 101.904 433.632 103.44C432.672 103.44 431.84 103.088 431.136 102.384C430.496 101.68 430.176 100.592 430.176 99.12L432 85.392L431.04 84.816C428.672 90.576 426.272 95.056 423.84 98.256C421.408 101.392 418.208 102.96 414.24 102.96C410.272 102.96 406.944 101.52 404.256 98.64C401.568 95.696 400.224 91.728 400.224 86.736C400.224 78.48 402.688 71.28 407.616 65.136C412.544 58.992 418.656 55.92 425.952 55.92C428.32 55.92 431.008 56.848 434.016 58.704C434.144 57.552 434.272 56.624 434.4 55.92C437.6 54.96 440.64 54.48 443.52 54.48C442.304 59.408 441.28 64.72 440.448 70.416C439.68 76.112 438.912 84.72 438.144 96.24H446.208ZM407.52 84.048C407.52 86.864 408.16 89.424 409.44 91.728C410.72 93.968 412.16 95.472 413.76 96.24H418.368C422.08 95.536 426.592 88.816 431.904 76.08C432.16 73.392 432.672 68.912 433.44 62.64H418.08C415.584 63.088 413.184 65.584 410.88 70.128C408.64 74.608 407.52 79.248 407.52 84.048ZM517.718 55.92C520.086 55.92 521.974 56.24 523.382 56.88C524.79 57.52 525.59 58.16 525.782 58.8L526.166 59.76C524.694 72.112 523.702 84.272 523.19 96.24H530.87C530.87 97.712 530.55 99.088 529.91 100.368C525.622 100.88 521.75 101.904 518.294 103.44C517.334 103.44 516.502 103.088 515.798 102.384C515.158 101.68 514.838 100.592 514.838 99.12C516.246 90.16 517.462 78 518.486 62.64H512.63C510.39 62.64 507.606 64.88 504.278 69.36C500.95 73.84 498.07 78.672 495.638 83.856C494.934 93.264 494.39 99.312 494.006 102C490.87 102.96 487.862 103.44 484.982 103.44C486.006 99.152 486.646 96.016 486.902 94.032C488.054 88.464 489.142 78 490.166 62.64H484.31C481.814 62.64 479.094 64.592 476.15 68.496C473.27 72.336 470.742 76.784 468.566 81.84C467.926 89.776 467.19 96.496 466.358 102C463.222 102.96 460.214 103.44 457.334 103.44C458.358 99.152 459.254 94.128 460.022 88.368C460.79 82.608 461.462 74.032 462.038 62.64H455.03C455.03 61.168 455.35 59.792 455.99 58.512C459.638 58 463.19 56.976 466.646 55.44C467.542 55.44 468.342 55.856 469.046 56.688C469.75 57.456 470.102 58.48 470.102 59.76L468.278 73.488L469.238 74.064C474.55 61.968 481.27 55.92 489.398 55.92C491.766 55.92 493.654 56.24 495.062 56.88C496.47 57.52 497.302 58.16 497.558 58.8L497.846 59.76C497.782 61.488 497.366 66.064 496.598 73.488L497.558 74.064C502.87 61.968 509.59 55.92 517.718 55.92Z" fill="white"/>
</svg>
